<?xml version="1.0"?>
<svg xmlns="http://www.w3.org/2000/svg" viewBox="0 0 64 64">
    <path style="fill:white;" d="M 13 0 C 5.832 0 0 5.832 0 13 C 0 18.397 3.307 23.033094 8 24.996094 L 8 54.957031 C 8 56.578031 9.3 57.96875 11 57.96875 L 59 57.96875 C 60.7 57.96875 62 56.578031 62 54.957031 L 62 13.009766 C 62 11.388766 60.7 10 59 10 L 54 10 L 54 7 C 54 5.346 52.654 4 51 4 C 49.346 4 48 5.346 48 7 L 48 10 L 38 10 L 38 7 C 38 5.346 36.654 4 35 4 C 33.346 4 32 5.346 32 7 L 32 10 L 25.636719 10 C 24.276719 4.276 19.134 0 13 0 z M 13 2 C 19.065 2 24 6.935 24 13 C 24 19.065 19.065 24 13 24 C 6.935 24 2 19.065 2 13 C 2 6.935 6.935 2 13 2 z M 35 6 C 35.551 6 36 6.448 36 7 L 36 15 C 36 15.552 35.551 16 35 16 C 34.449 16 34 15.552 34 15 L 34 7 C 34 6.448 34.449 6 35 6 z M 51 6 C 51.551 6 52 6.448 52 7 L 52 15 C 52 15.552 51.551 16 51 16 C 50.449 16 50 15.552 50 15 L 50 7 C 50 6.448 50.449 6 51 6 z M 19 8 C 18.74425 8 18.488469 8.0974688 18.292969 8.2929688 L 11 15.585938 L 7.7070312 12.292969 C 7.3160312 11.901969 6.6839688 11.901969 6.2929688 12.292969 C 5.9019687 12.683969 5.9019687 13.316031 6.2929688 13.707031 L 10.292969 17.707031 C 10.487969 17.902031 10.744 18 11 18 C 11.256 18 11.512031 17.902031 11.707031 17.707031 L 19.707031 9.7070312 C 20.098031 9.3160312 20.098031 8.6839688 19.707031 8.2929688 C 19.511531 8.0974688 19.25575 8 19 8 z M 25.947266 11.96875 L 32 11.96875 L 32 15 C 32 16.654 33.346 18 35 18 C 36.654 18 38 16.654 38 15 L 38 11.96875 L 48 11.96875 L 48 15 C 48 16.654 49.346 18 51 18 C 52.654 18 54 16.654 54 15 L 54 11.96875 L 59 11.96875 C 59.6 11.96875 60 12.430766 60 13.009766 L 60 20 C 59.4 20 59 20.447 59 21 L 59 23 C 59 23.553 59.4 24 60 24 L 60 54.957031 C 60 55.536031 59.6 56 59 56 L 11 56 C 10.4 56 10 55.536031 10 54.957031 L 10 25.636719 C 10.965 25.865719 11.966 26 13 26 C 20.168 26 26 20.168 26 13 C 26 12.652 25.974266 12.31075 25.947266 11.96875 z M 25 20 C 24.4 20 24 20.447 24 21 L 24 23 C 24 23.552 24.4 24 25 24 C 25.6 24 26 23.553 26 23 L 26 21 C 26 20.447 25.6 20 25 20 z M 30 20 C 29.4 20 29 20.447 29 21 L 29 23 C 29 23.552 29.4 24 30 24 C 30.6 24 31 23.553 31 23 L 31 21 C 31 20.447 30.6 20 30 20 z M 35 20 C 34.4 20 34 20.447 34 21 L 34 23 C 34 23.552 34.4 24 35 24 C 35.6 24 36 23.553 36 23 L 36 21 C 36 20.447 35.6 20 35 20 z M 40 20 C 39.4 20 39 20.447 39 21 L 39 23 C 39 23.552 39.4 24 40 24 C 40.6 24 41 23.553 41 23 L 41 21 C 41 20.447 40.6 20 40 20 z M 45 20 C 44.4 20 44 20.447 44 21 L 44 23 C 44 23.552 44.4 24 45 24 C 45.6 24 46 23.553 46 23 L 46 21 C 46 20.447 45.6 20 45 20 z M 50 20 C 49.4 20 49 20.447 49 21 L 49 23 C 49 23.552 49.4 24 50 24 C 50.6 24 51 23.553 51 23 L 51 21 C 51 20.447 50.6 20 50 20 z M 55 20 C 54.4 20 54 20.447 54 21 L 54 23 C 54 23.552 54.4 24 55 24 C 55.6 24 56 23.553 56 23 L 56 21 C 56 20.447 55.6 20 55 20 z M 34.925781 26.169922 C 34.519781 26.169922 34.154 26.415016 34 26.791016 L 31.517578 32.878906 L 24.759766 33.492188 C 24.361766 33.528188 24.024391 33.800641 23.900391 34.181641 C 23.777391 34.562641 23.891359 34.978188 24.193359 35.242188 L 29.289062 39.701172 L 27.726562 46.097656 C 27.630562 46.492656 27.783328 46.904578 28.111328 47.142578 C 28.439328 47.381578 28.878609 47.398547 29.224609 47.185547 L 34.925781 43.65625 L 40.625 47.185547 C 40.787 47.285547 40.968391 47.333984 41.150391 47.333984 C 41.357391 47.333984 41.563281 47.269578 41.738281 47.142578 C 42.066281 46.904578 42.218047 46.492656 42.123047 46.097656 L 40.560547 39.701172 L 45.658203 35.242188 C 45.960203 34.978187 46.074172 34.562641 45.951172 34.181641 C 45.827172 33.800641 45.489797 33.529187 45.091797 33.492188 L 38.335938 32.878906 L 35.851562 26.791016 C 35.698563 26.415016 35.331781 26.169922 34.925781 26.169922 z M 34.925781 29.816406 L 36.712891 34.197266 C 36.853891 34.543266 37.176828 34.782406 37.548828 34.816406 L 42.583984 35.273438 L 38.785156 38.595703 C 38.504156 38.841703 38.383656 39.223938 38.472656 39.585938 L 39.599609 44.195312 L 35.451172 41.628906 C 35.290172 41.528906 35.107781 41.480469 34.925781 41.480469 C 34.743781 41.480469 34.561391 41.529906 34.400391 41.628906 L 30.251953 44.195312 L 31.380859 39.585938 C 31.469859 39.223937 31.347406 38.841703 31.066406 38.595703 L 27.267578 35.273438 L 32.302734 34.816406 C 32.674734 34.782406 32.997672 34.543266 33.138672 34.197266 L 34.925781 29.816406 z M 13 50 C 12.447 50 12 50.447 12 51 C 12 51.553 12.447 52 13 52 L 57 52 C 57.553 52 58 51.553 58 51 C 58 50.447 57.553 50 57 50 L 13 50 z"/>
</svg>
